# xmcd
#
# Track frame offsets:
#	150
#	18392
#	35982
#	52775
#	72070
#	88522
#	107424
#	124039
#	133647
#	150772
#	166047
#	181179
#	195902
#	211832
#	227219
#	240964
#
# Disc length: 3472 seconds
#
# Revision: 3
# Processed by: cddbd v1.5.2PL0 Copyright (c) Steve Scherf et al.
# Submitted via: audiograbber 1.83.01
#
DISCID=b60d8e10
DTITLE=MH1101 Monster Hits - Male Country Hits Of 2001 (MH)
DYEAR=2008
DGENRE=Karaoke
TTITLE0=Keith Urban - But For The Grace Of God (MH)
TTITLE1=Tim Rushlow - She Misses Him (MH)
TTITLE2=Diamond Rio - One More Day (MH)
TTITLE3=Steve Holy - The Hunger (MH)
TTITLE4=Tim McGraw - My Next Thirty Years (MH)
TTITLE5=Brad Paisley - Two People Fell In Love (MH)
TTITLE6=Toby Keith - You Shouldn't Kiss Me Like This (MH)
TTITLE7=George Strait - Don't Make Me Come Over There And Love You (MH)
TTITLE8=Montgomery Gentry - She Couldn't Change Me (MH)
TTITLE9=Brooks and  Dunn - Ain't Nothing 'Bout You (MH)
TTITLE10=Mark McGuinn - Mrs.Steven Rudy (MH)
TTITLE11=Clay Davidson - Sometimes (MH)
TTITLE12=Aaron Tippin - People Like Us (MH)
TTITLE13=Kenny Chesney - Don't Happen Twice (MH)
TTITLE14=Gary Allan - Right Where I Need To Be (MH)
TTITLE15=Travis Tritt - It's A Great Day To Be Alive (MH)
EXTD=
EXTT0=
EXTT1=
EXTT2=
EXTT3=
EXTT4=
EXTT5=
EXTT6=
EXTT7=
EXTT8=
EXTT9=
EXTT10=
EXTT11=
EXTT12=
EXTT13=
EXTT14=
EXTT15=
PLAYORDER=
